<?xml version="1.0" encoding="iso-8859-1"?>
<!-- Uploaded to: SVG Repo, www.svgrepo.com, Generator: SVG Repo Mixer Tools -->
<svg height="800px" width="800px" version="1.1" id="Layer_1" xmlns="http://www.w3.org/2000/svg" xmlns:xlink="http://www.w3.org/1999/xlink" 
	 viewBox="0 0 512 512" xml:space="preserve">
<polygon style="fill:#F0DCBE;" points="255.849,37.796 50.895,132.39 255.849,226.983 460.802,132.39 "/>
<path style="fill:#EBD2AF;" d="M456.222,378.871l-200.374,92.48V226.983l204.953-94.594v239.323
	C460.802,374.788,459.015,377.583,456.222,378.871z"/>
<path style="fill:#D2B493;" d="M55.474,378.871l200.374,92.48V226.983L50.894,132.389v239.323
	C50.895,374.788,52.683,377.583,55.474,378.871z"/>
<path style="fill:#F0DCBE;" d="M460.802,132.39l-204.953,94.594l36.629,109.887c1.486,4.457,6.516,6.633,10.782,4.664l190.55-87.946
	c3.647-1.683,5.446-5.839,4.175-9.65L460.802,132.39z"/>
<path style="fill:#EBD2AF;" d="M50.895,132.39l204.954,94.594l-36.629,109.887c-1.486,4.457-6.516,6.633-10.782,4.664
	l-190.55-87.946c-3.647-1.683-5.446-5.839-4.175-9.65L50.895,132.39z"/>
<polygon style="fill:#D2B493;" points="460.802,132.39 255.849,37.796 255.849,226.983 "/>
<path d="M511.608,249.138l-40.305-120.159c-0.003-0.008-0.007-0.016-0.01-0.024c-0.013-0.039-0.029-0.077-0.043-0.116
	c-0.041-0.114-0.089-0.226-0.135-0.339c-0.038-0.091-0.071-0.185-0.112-0.275c-0.003-0.006-0.005-0.012-0.007-0.018
	c-0.008-0.017-0.018-0.032-0.026-0.049c-0.048-0.102-0.102-0.199-0.155-0.299c-0.055-0.104-0.107-0.211-0.167-0.314
	c-0.01-0.017-0.02-0.032-0.03-0.049c-0.051-0.084-0.108-0.165-0.162-0.247c-0.072-0.109-0.141-0.221-0.218-0.327
	c-0.011-0.015-0.021-0.029-0.032-0.044c-0.056-0.075-0.118-0.144-0.177-0.217c-0.083-0.104-0.165-0.209-0.254-0.309
	c-0.013-0.014-0.025-0.029-0.037-0.043c-0.064-0.071-0.136-0.136-0.204-0.205c-0.089-0.09-0.175-0.182-0.269-0.268
	c-0.016-0.015-0.032-0.031-0.048-0.046c-0.07-0.063-0.147-0.12-0.219-0.18c-0.002-0.002-0.004-0.003-0.006-0.005
	c-0.094-0.078-0.185-0.159-0.283-0.232c-0.021-0.016-0.042-0.033-0.064-0.049c-0.064-0.047-0.134-0.089-0.2-0.134
	c-0.012-0.008-0.025-0.017-0.037-0.025c-0.098-0.067-0.195-0.137-0.297-0.199c-0.029-0.018-0.057-0.035-0.086-0.052
	c-0.066-0.039-0.136-0.073-0.203-0.11c-0.006-0.003-0.013-0.007-0.019-0.01c-0.108-0.06-0.215-0.122-0.327-0.176
	c-0.038-0.019-0.076-0.036-0.114-0.054c-0.015-0.007-0.029-0.016-0.044-0.023L258.729,28.743c-0.024-0.011-0.05-0.019-0.075-0.029
	c-0.182-0.082-0.369-0.153-0.558-0.22c-0.057-0.021-0.114-0.044-0.171-0.063c-0.212-0.069-0.43-0.127-0.65-0.178
	c-0.037-0.008-0.072-0.02-0.109-0.028c-0.253-0.054-0.511-0.096-0.772-0.124c-0.003,0-0.007-0.001-0.01-0.001
	c-0.259-0.027-0.523-0.042-0.79-0.042c-0.005,0-0.01,0-0.015,0c-0.27,0-0.535,0.017-0.797,0.044c-0.03,0.003-0.059,0.01-0.089,0.014
	c-0.234,0.028-0.466,0.064-0.693,0.113c-0.048,0.011-0.095,0.026-0.143,0.037c-0.208,0.049-0.415,0.104-0.616,0.171
	c-0.063,0.021-0.125,0.046-0.188,0.069c-0.183,0.066-0.365,0.136-0.542,0.216c-0.026,0.012-0.053,0.02-0.079,0.032L44.206,125.335
	c-0.017,0.008-0.031,0.018-0.048,0.025c-0.035,0.017-0.071,0.032-0.105,0.05c-0.117,0.058-0.229,0.123-0.345,0.187
	c-0.07,0.039-0.143,0.074-0.211,0.115c-0.027,0.016-0.054,0.033-0.081,0.049c-0.107,0.066-0.208,0.14-0.313,0.211
	c-0.003,0.002-0.006,0.004-0.008,0.006c-0.072,0.049-0.147,0.095-0.217,0.146c-0.021,0.015-0.04,0.031-0.061,0.047
	c-0.098,0.074-0.19,0.156-0.285,0.235c-0.074,0.062-0.152,0.12-0.223,0.185c-0.016,0.015-0.031,0.031-0.047,0.045
	c-0.092,0.084-0.177,0.176-0.265,0.267c-0.068,0.07-0.141,0.136-0.206,0.208c-0.013,0.014-0.025,0.03-0.038,0.044
	c-0.086,0.097-0.165,0.201-0.247,0.303c-0.06,0.075-0.124,0.147-0.181,0.224c-0.011,0.015-0.021,0.03-0.032,0.044
	c-0.075,0.103-0.142,0.212-0.212,0.321c-0.055,0.085-0.114,0.167-0.166,0.255c-0.01,0.017-0.02,0.033-0.03,0.049
	c-0.058,0.1-0.108,0.204-0.162,0.308c-0.053,0.102-0.109,0.202-0.157,0.307c-0.008,0.017-0.018,0.032-0.025,0.048
	c-0.003,0.006-0.005,0.012-0.007,0.019c-0.04,0.088-0.073,0.18-0.109,0.271c-0.047,0.114-0.095,0.228-0.136,0.345
	c-0.013,0.038-0.029,0.076-0.042,0.114c-0.003,0.009-0.007,0.017-0.01,0.025L0.383,250.097c-1.204,3.635,0.518,7.594,3.997,9.192
	l208.587,95.796c0.995,0.457,2.066,0.686,3.136,0.686c1.02,0,2.041-0.207,2.997-0.623c1.961-0.853,3.465-2.499,4.137-4.529
	l25.291-76.351l0.358,190.432L55.341,375.813l-0.141-75.348c-0.008-4.146-3.371-7.501-7.515-7.501c-0.005,0-0.01,0-0.015,0
	c-4.15,0.008-7.509,3.379-7.501,7.529l0.15,80.156c0,0.061,0.008,0.119,0.009,0.179c0.004,0.156,0.011,0.312,0.024,0.467
	c0.01,0.108,0.023,0.214,0.037,0.321c0.017,0.129,0.036,0.259,0.06,0.387c0.023,0.126,0.051,0.251,0.081,0.376
	c0.025,0.105,0.052,0.211,0.082,0.316c0.039,0.135,0.081,0.27,0.127,0.402c0.033,0.094,0.067,0.188,0.103,0.281
	c0.052,0.131,0.107,0.26,0.166,0.389c0.043,0.094,0.088,0.188,0.135,0.281c0.06,0.117,0.122,0.231,0.187,0.345
	c0.059,0.102,0.12,0.202,0.184,0.302c0.063,0.097,0.126,0.192,0.193,0.288c0.077,0.108,0.157,0.215,0.24,0.32
	c0.063,0.08,0.128,0.157,0.194,0.234c0.093,0.108,0.189,0.213,0.289,0.317c0.068,0.07,0.137,0.139,0.208,0.206
	c0.102,0.098,0.207,0.193,0.316,0.287c0.081,0.069,0.165,0.136,0.249,0.202c0.102,0.08,0.205,0.157,0.312,0.232
	c0.106,0.075,0.214,0.145,0.325,0.213c0.092,0.057,0.183,0.115,0.279,0.168c0.136,0.078,0.277,0.148,0.418,0.217
	c0.054,0.026,0.104,0.058,0.159,0.083l208.587,95.796c0.013,0.006,0.027,0.01,0.041,0.016c0.024,0.011,0.047,0.021,0.071,0.031
	c0.166,0.073,0.337,0.136,0.509,0.197c0.066,0.024,0.131,0.051,0.198,0.072c0.065,0.021,0.131,0.041,0.197,0.06
	c0.049,0.015,0.099,0.024,0.148,0.038c0.064,0.017,0.128,0.034,0.192,0.049c0.077,0.019,0.154,0.043,0.231,0.059
	c0.115,0.024,0.233,0.039,0.351,0.057c0.08,0.013,0.159,0.028,0.239,0.038c0.318,0.041,0.635,0.068,0.952,0.068
	c0.002,0,0.003,0,0.005,0c0.002,0,0.003,0,0.005,0c0.318,0,0.637-0.027,0.956-0.068c0.081-0.011,0.16-0.025,0.24-0.039
	c0.12-0.019,0.242-0.034,0.361-0.059c0.074-0.016,0.147-0.039,0.221-0.057c0.064-0.016,0.128-0.033,0.191-0.05
	c0.051-0.014,0.103-0.025,0.154-0.04c0.069-0.02,0.137-0.041,0.205-0.063c0.066-0.021,0.131-0.049,0.198-0.072
	c0.169-0.061,0.339-0.124,0.502-0.196c0.025-0.011,0.05-0.022,0.075-0.034c0.017-0.008,0.033-0.012,0.05-0.02l208.225-96.58
	c0.054-0.025,0.104-0.057,0.157-0.083c0.141-0.069,0.28-0.141,0.416-0.218c0.094-0.054,0.184-0.111,0.276-0.168
	c0.11-0.07,0.219-0.141,0.326-0.216c0.105-0.074,0.207-0.152,0.309-0.231c0.085-0.067,0.169-0.135,0.251-0.206
	c0.107-0.092,0.21-0.187,0.313-0.285c0.071-0.069,0.141-0.138,0.21-0.21c0.098-0.102,0.193-0.207,0.286-0.315
	c0.067-0.079,0.133-0.159,0.197-0.24c0.081-0.104,0.16-0.208,0.235-0.317c0.068-0.096,0.133-0.193,0.196-0.293
	c0.063-0.098,0.123-0.197,0.18-0.299c0.066-0.115,0.128-0.231,0.188-0.351c0.046-0.091,0.09-0.183,0.133-0.277
	c0.059-0.129,0.114-0.261,0.166-0.395c0.035-0.091,0.068-0.183,0.1-0.277c0.046-0.133,0.088-0.269,0.127-0.406
	c0.029-0.104,0.055-0.208,0.08-0.314c0.029-0.125,0.057-0.25,0.08-0.378c0.023-0.128,0.042-0.257,0.058-0.387
	c0.014-0.106,0.027-0.213,0.036-0.321c0.013-0.156,0.019-0.313,0.023-0.469c0.001-0.06,0.009-0.118,0.009-0.177l-0.15-80.155
	c-0.008-4.146-3.371-7.501-7.515-7.501c-0.005,0-0.01,0-0.015,0c-4.15,0.008-7.509,3.379-7.501,7.529l0.141,75.348l-193.208,89.62
	l-0.358-190.432l25.578,76.255c0.68,2.026,2.19,3.668,4.154,4.513c0.949,0.409,1.96,0.612,2.971,0.612
	c1.08,0,2.16-0.232,3.162-0.697l208.225-96.579C511.119,256.732,512.826,252.768,511.608,249.138z M255.939,219.671L65.3,132.118
	l182.8-84.787l0.28,148.567c0.008,4.146,3.371,7.501,7.515,7.501c0.005,0,0.01,0,0.015,0c4.15-0.008,7.509-3.379,7.501-7.529
	l-0.28-148.568l183.118,84.099L255.939,219.671z M211.609,337.925L16.765,248.439l35.097-105.955l194.845,89.484L211.609,337.925z
	 M300.713,337.757l-35.495-105.823l194.506-90.216l35.495,105.822L300.713,337.757z"/>
</svg>